<svg width="72" height="72" viewBox="0 0 72 72" fill="none" xmlns="http://www.w3.org/2000/svg">
<path d="M43.2001 21.6H28.8001C24.8236 21.6 21.6001 24.8235 21.6001 28.8V43.2C21.6001 47.1764 24.8236 50.4 28.8001 50.4H43.2001C47.1765 50.4 50.4001 47.1764 50.4001 43.2V28.8C50.4001 24.8235 47.1765 21.6 43.2001 21.6Z" stroke="#9333EA" stroke-width="2.4"/>
<path d="M30.5999 35.1C32.0911 35.1 33.2999 33.8911 33.2999 32.4C33.2999 30.9088 32.0911 29.7 30.5999 29.7C29.1087 29.7 27.8999 30.9088 27.8999 32.4C27.8999 33.8911 29.1087 35.1 30.5999 35.1Z" fill="#9333EA"/>
<path d="M41.4002 35.1C42.8914 35.1 44.1002 33.8911 44.1002 32.4C44.1002 30.9088 42.8914 29.7 41.4002 29.7C39.909 29.7 38.7002 30.9088 38.7002 32.4C38.7002 33.8911 39.909 35.1 41.4002 35.1Z" fill="#9333EA"/>
<path d="M28.7998 41.4C31.0498 44.1 33.2998 45 35.9998 45C38.6998 45 40.9498 44.1 43.1998 41.4" stroke="#9333EA" stroke-width="2.4" stroke-linecap="round"/>
<path d="M36 14.4V19.8" stroke="#9333EA" stroke-width="2.4" stroke-linecap="round"/>
<path d="M36 52.2V57.6" stroke="#9333EA" stroke-width="2.4" stroke-linecap="round"/>
<path d="M14.3999 36H19.7999" stroke="#9333EA" stroke-width="2.4" stroke-linecap="round"/>
<path d="M52.2002 36H57.6002" stroke="#9333EA" stroke-width="2.4" stroke-linecap="round"/>
</svg>
